<svg xmlns="http://www.w3.org/2000/svg" viewBox="0 0 32 32" width="256" height="256">
  <defs>
    <radialGradient id="astrix-halo" cx="50%" cy="50%" r="50%">
      <stop offset="0%" stop-color="#ffd27a" stop-opacity="0.55" />
      <stop offset="55%" stop-color="#ffb347" stop-opacity="0.18" />
      <stop offset="100%" stop-color="#ffb347" stop-opacity="0" />
    </radialGradient>
    <linearGradient id="astrix-house" x1="0" y1="0" x2="0" y2="1">
      <stop offset="0%" stop-color="#fff2cf" />
      <stop offset="45%" stop-color="#ffd27a" />
      <stop offset="100%" stop-color="#ffb347" />
    </linearGradient>
    <mask id="astrix-a-stencil" maskUnits="userSpaceOnUse">
      <rect width="32" height="32" fill="white" />
      <polygon fill="black" points="14.6,12.4 16.6,12.4 13.6,22.4 11.4,22.4" />
      <polygon fill="black" points="15.4,12.4 17.4,12.4 20.6,22.4 18.4,22.4" />
      <rect x="13" y="18.4" width="6" height="1.7" fill="black" />
    </mask>
  </defs>
  <rect width="32" height="32" fill="#0b0d12" />
  <circle cx="16" cy="16" r="15" fill="url(#astrix-halo)" />
  <path
    fill="url(#astrix-house)"
    mask="url(#astrix-a-stencil)"
    d="M 16 4 L 27.6 12.6 Q 28.6 13.3 28.3 14.5 L 26.4 27 Q 26.2 28 25.1 28 L 6.9 28 Q 5.8 28 5.6 27 L 3.7 14.5 Q 3.4 13.3 4.4 12.6 Z"
  />
</svg>
